<svg id="Layer_1" enable-background="new 0 0 480.011 480.011" height="512" viewBox="0 0 480.011 480.011" width="512" xmlns="http://www.w3.org/2000/svg"><path d="m355.438 128.242c-.934-1.827-1.1-3.95-.512-5.916 13.903-46.473 52.787-75.976 97.991-81.07 6.895-.777 11.45 7.065 7.341 12.656-28.139 38.285-25.055 87.17 5.366 122.871 3.074 3.608 2.342 9.113-1.59 11.76-41.24 27.771-63.991 75.776-59.145 125.418.446 4.57-2.964 8.599-7.551 8.826-65.987 3.265-122.145 41.983-150.15 99.839-2.903 5.997-11.464 5.997-14.367 0-28.006-57.855-84.164-96.574-150.15-99.839-4.586-.227-7.997-4.255-7.551-8.825 4.852-49.696-17.948-97.679-59.143-125.418-3.932-2.648-4.665-8.153-1.591-11.761 30.365-35.636 33.553-84.523 5.364-122.873-4.109-5.591.446-13.432 7.341-12.656 45.249 5.093 84.104 34.65 97.992 81.073.589 1.969.42 4.095-.516 5.924-12.761 24.946-12.543 55.564 4.557 80.983 18.92 27.33 61.8 16.03 65.47-17l1.894-17.037c.734-6.599 8.74-9.501 13.498-4.87 16.757 16.309 43.277 16.311 60.036 0 4.758-4.631 12.765-1.729 13.498 4.87l1.894 17.037c3.661 32.951 47.153 45.274 66.59 15.33 15.303-23.426 16.495-53.784 3.434-79.322z" fill="#42434d"/><g fill="#4d4e59"><path d="m452.915 41.254c6.9-.77 11.45 7.07 7.34 12.66-1.946 2.647-4.615 4.388-7.614 5.186-21.335 5.68-40.302 16.997-54.927 32.896-17.418 18.935-23.651 45.38-17.92 70.461 5.047 22.086.734 42.728-10.288 59.607-1.72 2.649-3.627 4.966-5.679 6.969-10.465 10.212-25.961-5.225-16.061-15.985 14.776-16.058 24.728-51.446 7.67-84.804-.93-1.83-1.1-3.95-.51-5.92 13.899-46.47 52.789-75.97 97.989-81.07z"/><path d="m210.982 171.262c2.507 2.287 3.294 5.806 2.41 9.082-.27 1-.16.566-2.127 18.29-1.962 17.667-15.147 29.118-29.882 31.763-6.586 1.182-9.868-7.655-4.114-11.071 9.067-5.383 15.951-14.71 17.326-27.092l1.89-17.04c.74-6.6 8.74-9.5 13.5-4.87.328.318.66.631.997.938z"/><path d="m103.665 318.094c-.313 3.69-3.605 6.356-7.279 5.892-4.518-.57-9.091-.973-13.711-1.203-4.59-.22-8-4.25-7.55-8.82 4.85-49.7-17.95-97.68-59.15-125.42-3.93-2.65-4.66-8.15-1.59-11.76 30.375-35.654 33.548-84.502 5.37-122.87-4.11-5.6.44-13.44 7.34-12.66.739.083 1.477.172 2.212.268 7.519.981 13.851 5.598 17.796 12.074.129.212.27.421.422.628 20.145 27.423 24.837 60.883 13.981 91.338-9.044 25.373-4.188 53.426 12.853 74.286 23.619 28.912 32.354 62.309 29.306 98.247z"/></g><path d="m476.009 190.488c-46.261 26.745-70.639 78.085-62.106 130.796.785 4.854-2.961 9.267-7.879 9.278-71.432.162-133.65 44.029-158.509 111.756-2.56 6.981-12.464 6.967-15.02 0-18.323-49.922-57.157-87.686-106.544-103.609-4.205-1.356-6.515-5.864-5.159-10.069s5.862-6.516 10.069-5.159c48.081 15.502 87.015 49.853 109.145 95.61 29.628-61.222 88.915-100.904 156.926-104.293-5.172-52.548 18.92-103.45 62.561-132.846-33.293-38.88-35.621-92.082-5.686-132.765-43.392 4.826-78.651 33.469-91.224 75.454 15.137 29.582 12.545 63.646-5.126 89.148-20.272 29.282-63.88 22.628-76.78-8.156-1.708-4.075.211-8.763 4.286-10.47 4.071-1.706 8.762.21 10.47 4.286 7.792 18.592 35.786 25.319 49.874 3.739 14.264-21.834 14.92-50.083 1.714-73.724-1.018-1.822-1.283-3.969-.739-5.984 15.29-56.709 65.921-93.253 126.034-90.911 7.069.274 10.329 8.964 5.174 13.818-7.97 7.506-26.7 28.439-28.497 60.622-2.206 39.519 23.367 65.867 28.517 70.748 3.881 3.68 3.12 10.061-1.501 12.731zm-353.456 23.3c23.313 33.674 75.543 19.389 79.996-20.675l1.883-16.943c26.721 26.002 72.56 15.474 84.198-21.187 1.337-4.211-.993-8.709-5.204-10.046-4.214-1.337-8.709.993-10.046 5.204-4.638 14.607-18.05 24.421-33.375 24.421s-28.737-9.814-33.375-24.421c-2.602-8.2-14.627-7.013-15.576 1.537l-4.407 39.667c-2.861 25.746-36.27 34.524-50.939 13.334-15.169-21.923-16.28-50.938-2.718-75.217 1.018-1.822 1.283-3.969.739-5.984-15.292-56.71-65.951-93.25-126.034-90.911-7.069.274-10.329 8.964-5.174 13.818 7.97 7.506 26.7 28.439 28.497 60.622 2.206 39.519-23.367 65.867-28.517 70.748-3.882 3.681-3.12 10.061 1.5 12.732 46.261 26.744 70.64 78.085 62.106 130.796-.706 4.362 2.258 8.469 6.619 9.176 4.359.706 8.47-2.256 9.176-6.619 9.026-55.758-15.257-110.818-61.385-141.889 33.293-38.879 35.623-92.078 5.688-132.764 43.387 4.829 78.65 33.471 91.223 75.454-15.062 29.434-12.635 63.548 5.125 89.147zm88.452 12.774v6c0 4.418 3.582 8 8 8s8-3.582 8-8v-6c0-4.418-3.582-8-8-8s-8 3.582-8 8zm42 0v6c0 4.418 3.582 8 8 8s8-3.582 8-8v-6c0-4.418-3.582-8-8-8s-8 3.582-8 8z"/></svg>