<?xml version="1.0" encoding="iso-8859-1"?>
<!-- Generator: Adobe Illustrator 19.0.0, SVG Export Plug-In . SVG Version: 6.00 Build 0)  -->
<svg version="1.1" id="Capa_1" xmlns="http://www.w3.org/2000/svg" xmlns:xlink="http://www.w3.org/1999/xlink" x="0px" y="0px"
	 viewBox="0 0 512.017 512.017" style="enable-background:new 0 0 512.017 512.017;" xml:space="preserve">
<g transform="translate(0 -1)">
	<g transform="translate(1 2)">
		<path style="fill:#00BCD4;" d="M502.46,7.564c0,0-9.643,130.56-125.44,242.517S186.727,391.564,186.727,391.564l-8.533,8.533
			l-34.133-51.2c24.832-24.149,109.653-108.373,155.563-172.117c34.219-47.445,58.88-125.696,58.88-125.696l57.685-17.408
			l16.555-5.035L502.46,7.564z"/>
		<path style="fill:#00838F;" d="M424.892,31.799C407.057,192.652,169.66,365.964,169.66,365.964l-3.584,3.072l-19.627-23.125
			l5.632-4.779c24.832-24.149,101.632-100.608,147.541-164.352c34.219-47.445,58.88-125.696,58.88-125.696l66.133-19.968
			L424.892,31.799z"/>
		<polygon style="fill:#795548;" points="118.46,357.431 53.351,433.719 78.268,462.903 169.66,408.631 		"/>
		<g>
			<ellipse style="fill:#FDD834;" cx="43.008" cy="467.357" rx="35.482" ry="35.14"/>
			<path style="fill:#FDD834;" d="M170.633,424.119l-62.618-73.754c-3.67-3.595-5.579-8.619-5.223-13.744
				c0.356-5.125,2.942-9.836,7.075-12.889c7.961-3.667,17.402-1.257,22.63,5.777l62.609,73.745
				c6.896,6.99,6.964,18.202,0.154,25.276C187.186,433.852,176.358,431.912,170.633,424.119z"/>
		</g>
		<path style="fill:#00838F;" d="M333.918,217.936c-3.463-0.004-6.58-2.1-7.889-5.305c-1.31-3.205-0.553-6.884,1.916-9.312
			c5.513-5.427,10.863-11.093,15.915-16.759c3.127-3.535,8.527-3.865,12.062-0.738c3.535,3.127,3.865,8.527,0.738,12.062
			c-5.299,5.973-10.923,11.904-16.717,17.604C338.337,217.067,336.171,217.947,333.918,217.936z"/>
		<path style="fill:#3F5C6C;" d="M433.425,32.567c-5.512,47.116-22.701,92.11-50.005,130.901c-1.576,2.367-4.239,3.779-7.083,3.755
			c-1.698-0.02-3.356-0.523-4.779-1.451c-3.858-2.682-4.846-7.966-2.219-11.861c24.883-35.821,40.936-77.022,46.848-120.235
			l16.555-5.035C433.312,29.867,433.547,31.221,433.425,32.567z"/>
	</g>
	<g>
		<path d="M500.994,1.397l-143.957,43.52c-2.7,0.814-4.824,2.909-5.675,5.598c-0.247,0.777-24.661,77.517-57.66,123.281
			c-45.389,62.993-121.335,138.581-145.348,162.022l-8.346-9.83c-7.875-10.265-21.946-13.464-33.485-7.612
			c-5.822,3.387-9.818,9.206-10.889,15.855c-1.207,8.506,1.298,17.121,6.878,23.654l4.685,5.53l-56.055,63.07
			c-12.629-2.171-25.577,1.276-35.456,9.438C6.751,443.348,1.16,454.04,0.161,465.614c-0.999,11.574,2.678,23.066,10.209,31.911
			c15.765,18.359,43.333,20.701,61.969,5.265c8.962-7.424,14.559-18.142,15.531-29.739c0.094-1.135-0.051-2.244-0.043-3.413
			l72.192-44.049l5.12,5.973c5.541,6.547,13.612,10.418,22.187,10.641c5.28,0.045,10.402-1.795,14.447-5.188
			c4.703-3.903,7.612-9.554,8.055-15.65c0.527-7.895-2.055-15.683-7.194-21.7l-2.338-2.756
			c15.812-6.997,81.297-39.816,183.697-138.692c116.753-112.922,127.573-242.56,128-248.021c0.21-2.809-0.98-5.54-3.18-7.3
			C506.614,1.136,503.688,0.576,500.994,1.397z M61.433,489.683c-11.429,9.493-28.361,8.061-38.033-3.217
			c-4.581-5.373-6.819-12.356-6.214-19.39c0.604-7.034,4.001-13.533,9.431-18.046c11.432-9.484,28.356-8.052,38.033,3.217
			c4.587,5.37,6.83,12.355,6.225,19.391C70.271,478.675,66.87,485.175,61.433,489.683z M84.192,451.923
			c-1.649-3.875-3.854-7.488-6.545-10.726c-2.767-3.158-5.978-5.897-9.532-8.132l50.236-56.508l30.481,35.9L84.192,451.923z
			 M190.858,423.968c-3.721,3.081-9.865,0-12.698-3.413l-62.609-73.745c-2.33-2.692-3.439-6.23-3.063-9.771
			c0.223-1.685,1.233-3.165,2.722-3.985c3.516-2.065,8.849,0.452,11.81,3.942l62.609,73.745c2.171,2.557,3.315,5.829,3.209,9.182
			c-0.053,1.575-0.784,3.05-2.005,4.045H190.858z M372.089,245.937C267.863,346.631,201.798,377.692,191.772,382.061
			c-1.097,0.222-2.138,0.66-3.063,1.289l-29.278-34.483c23.415-22.793,101.436-100.301,148.122-165.094
			c30.387-42.129,52.907-106.487,58.684-123.81l49.63-15.002c-7.031,39.824-22.571,77.663-45.559,110.933
			c-2.649,3.9-1.634,9.208,2.266,11.857c3.9,2.649,9.208,1.634,11.857-2.266c26.213-37.488,43.161-80.66,49.451-125.969
			l59.383-17.92C477.395,107.232,435.005,185.713,372.089,245.937z"/>
		<path d="M344.851,188.559c-5.052,5.692-10.402,11.332-15.915,16.759c-2.321,2.101-3.305,5.305-2.563,8.347
			s3.089,5.433,6.117,6.231s6.249-0.127,8.393-2.409c5.811-5.683,11.435-11.657,16.734-17.63c3.127-3.535,2.796-8.935-0.738-12.062
			c-3.535-3.127-8.935-2.796-12.062,0.738L344.851,188.559z"/>
	</g>
</g>
<g>
</g>
<g>
</g>
<g>
</g>
<g>
</g>
<g>
</g>
<g>
</g>
<g>
</g>
<g>
</g>
<g>
</g>
<g>
</g>
<g>
</g>
<g>
</g>
<g>
</g>
<g>
</g>
<g>
</g>
</svg>
