<svg id="_x33_0" enable-background="new 0 0 64 64" height="512" viewBox="0 0 64 64" width="512" xmlns="http://www.w3.org/2000/svg"><g><g><g><path d="m55 12-1.15 8.44v.02l-.06.17c-.5 1.49-1.67 2.66-3.16 3.16l-.63.21.63.21c1.01.34 1.87.98 2.46 1.82l-1.05 7.68-6.04 3.29-3.73 17.17-3.16-2.01 4.89-36.16z" fill="#4fc1e9"/></g><g><path d="m44 16-4.89 36.16-2.72-1.73-2.38-1.52 1.37-13.32v-.01l2.62-25.58z" fill="#69d6f4"/></g><g><path d="m48 2 7 10-11 4-6-6z" fill="#3bafda"/></g><g><path d="m29 11 6.38 24.58v.01l-1.37 13.32-3.01-1.91-9-30z" fill="#4fc1e9"/></g><g><path d="m31 47-1.09.88-14.91-19.88-2-13 9 2z" fill="#69d6f4"/></g><g><path d="m29 11-7 6-9-2 5-13z" fill="#4fc1e9"/></g><g><path d="m11 35 10 13-6-3-3.42 3.42-9.58-13.42z" fill="#69d6f4"/></g><g><path d="m26 51-1.1 2.75-1.9-4.75-2-1-10-13 4-7 14.91 19.88z" fill="#4fc1e9"/></g><g><path d="m15 28-4 7h-9l3-10z" fill="#3bafda"/></g><g><path d="m24 56 1.57 2.1-8.57 1.9-1-8 7-3 1.9 4.75z" fill="#69d6f4"/></g><g><path d="m21 48 2 1-7 3-7-1 2.58-2.58 3.42-3.42z" fill="#3bafda"/></g><g><path d="m16 52 1 8-2 2h-3l-3-11z" fill="#4fc1e9"/></g><g><path d="m30 55 2 5h-5l-1.43-1.9-1.57-2.1.9-2.25 1.1-2.75z" fill="#3bafda"/></g><g><path d="m42.27 54.17-1.27 5.83h-9l-2-5 6.39-4.57 2.72 1.73z" fill="#4fc1e9"/></g><g><path d="m34.01 48.91 2.38 1.52-6.39 4.57-4-4 3.91-3.12 1.09-.88z" fill="#69d6f4"/></g><g><path d="m51 41-6 19h-4l1.27-5.83 3.73-17.17z" fill="#69d6f4"/></g><g><path d="m57 31 5 11-11-1z" fill="#69d6f4"/></g><g><path d="m62 42-12 20-5-2 6-19z" fill="#4fc1e9"/></g><g><path d="m52.04 33.71 4.96-2.71-6 10-5-4z" fill="#3bafda"/></g><g><path d="m12.37 14.79.63.21-.63.21c-1.49.5-2.66 1.67-3.16 3.16l-.21.63-.21-.63c-.5-1.49-1.67-2.66-3.16-3.16l-.63-.21.63-.21c1.49-.5 2.66-1.67 3.16-3.16l.21-.63.21.63c.5 1.49 1.67 2.66 3.16 3.16z" fill="#ff826e"/></g><g><path d="m57.37 24.21c-1.49.5-2.66 1.67-3.16 3.16l-.21.63-.21-.63c-.16-.48-.4-.94-.7-1.34-.59-.84-1.45-1.48-2.46-1.82l-.63-.21.63-.21c1.49-.5 2.66-1.67 3.16-3.16l.06-.17v-.02l.15-.44.21.63c.5 1.49 1.67 2.66 3.16 3.16l.63.21z" fill="#ff826e"/></g></g><g><path d="m57.465 29.607-4.167 2.273.273-2.004.429 1.286 1.158-3.474c.396-1.188 1.342-2.134 2.53-2.53l3.473-1.158-3.473-1.159c-1.188-.396-2.134-1.342-2.53-2.53l-.2-.601 1.086-7.964-7.836-11.193-11.16 8.928-2.1 20.477-5.062-19.524-12.323-10.083-5.141 13.366c-1.057-.443-1.899-1.311-2.264-2.405l-1.158-3.474-1.158 3.474c-.396 1.188-1.342 2.134-2.53 2.53l-3.474 1.158 3.475 1.158c1.188.396 2.133 1.341 2.529 2.53l1.158 3.474 1.158-3.474c.339-1.016 1.093-1.832 2.043-2.301l1.569 10.2-9.44-2.832-3.429 11.428 9.376 13.126-2.395 2.395 3.354 12.296h4.178l2.087-2.087 7.658-1.701 1.341 1.788h18.308l5.612 2.245 12.708-21.181zm-48.465-13.037c-.421-.615-.955-1.149-1.57-1.57.615-.422 1.148-.955 1.57-1.57.421.615.955 1.148 1.57 1.57-.615.421-1.148.955-1.57 1.57zm38.799 20.588 6.452-3.519-3.519 5.865zm9.079-4.01 3.501 7.701-7.701-.7zm-1.308-9.148c-.615.421-1.148.955-1.57 1.57-.421-.615-.955-1.149-1.57-1.57.615-.422 1.148-.955 1.57-1.57.421.615.955 1.148 1.57 1.57zm-2.137-12.494-9.176 3.337-4.76-4.76 8.295-6.636zm-14.653.688 4.162 4.162-4.611 34.124-3.265-2.078zm-8.672 41.5-2.611-2.611 3.569-2.856 3.541 2.253zm-14.244-2.723-4.742-.678 4.076-4.076 5.427 2.714zm5.788-3.763-9.453-12.29 2.915-5.101 13.412 17.882-3.356 2.684-.27.674-1.113-2.782zm-.441-29.359 8.383 27.943-13.644-18.191-1.74-11.307zm13.151 17.818-1.183 11.535-1.328-.845-8.706-29.021 5.289-4.533zm-15.925-32.018 9.006 7.368-5.714 4.898-7.379-1.64zm-12.767 22.596 7.837 2.351-3.087 5.404h-7.076zm-1.727 9.755h6.565l7.045 9.158-2.75-1.375-3.092 3.092zm10.643 25h-1.822l-2.398-8.795 4.737.676.845 6.757zm3.27-2.215-.77-6.163 5.367-2.3 1.371 3.428-.96 2.4.979 1.305zm7.281-2.935 1.228-3.07 2.782 2.782 1.376 3.438h-3.023zm15.057 3.15h-7.517l-1.457-3.643 5.206-3.719 4.716 3.001zm-.004-7.337 4.72-34.93 8.875-3.227-.917 6.727-.026.079c-.396 1.188-1.342 2.134-2.53 2.53l-3.474 1.158 3.475 1.158c.678.226 1.261.645 1.724 1.172l-.919 6.739-5.997 3.271-3.525 16.216zm6.444-12.875 3.227 2.582-5.593 17.63h-2.028zm2.947 21.967-3.348-1.339 5.478-17.347 8.612.783z"/><path d="m32 1h2v4h-2z"/><path d="m28 5h4v2h-4z"/><path d="m34 5h4v2h-4z"/><path d="m32 7h2v4h-2z"/></g></g></svg>