<svg height="495pt" viewBox="-79 0 495 495.971" width="495pt" xmlns="http://www.w3.org/2000/svg"><path d="m240.484375 239.972656h56c8.839844 0 16 7.160156 16 16v40" fill="#c18e59"/><path d="m56.484375 343.972656h-26.253906c-12.007813 0-21.746094-9.738281-21.746094-21.746094 0-6.496093 2.90625-12.65625 7.921875-16.785156l109.550781-90.222656c11.976563-9.855469 27.015625-15.246094 42.527344-15.246094s30.554687 5.390625 42.527344 15.253906l109.554687 90.222657c5.015625 4.128906 7.917969 10.28125 7.917969 16.777343 0 12.007813-9.734375 21.746094-21.742187 21.746094h-26.257813" fill="#a66d43"/><path d="m264.484375 487.972656h-192c-8.839844 0-16-7.160156-16-16v-144h224v144c0 8.839844-7.160156 16-16 16zm0 0" fill="#f0d365"/><path d="m216.484375 487.972656v-56c0-13.257812-10.742187-24-24-24h-48c-13.253906 0-24 10.742188-24 24v56" fill="#c18e59"/><path d="m264.484375 135.972656c-39.542969 0-70.710937-35.867187-62.75-76.839844 4.847656-24.953124 24.960937-45.066406 49.910156-49.914062 40.976563-7.960938 76.839844 23.207031 76.839844 62.753906v11.710938c0 18.113281-7.191406 35.480468-20 48.289062-12.808594 12.804688-20 30.175782-20 48.285156v27.714844l-8.0625-5.378906c-24.953125-16.628906-39.9375-44.640625-39.9375-74.621094" fill="#b8cbd9"/><path d="m251.644531 9.21875c-24.949219 4.847656-45.0625 24.960938-49.910156 49.914062-6.265625 32.246094 11.742187 61.246094 38.960937 72.167969.230469 6.246094.980469 12.40625 2.46875 18.367188 36.730469-21.792969 61.320313-60.914063 61.320313-105.695313 0-8.105468-.863281-16.007812-2.390625-23.683594-13.71875-10-31.511719-14.75-50.449219-11.070312zm0 0" fill="#e8eff4"/><path d="m288.484375 215.972656c-1.550781 0-3.101563-.449218-4.4375-1.34375l-8.066406-5.378906c-24.808594-16.535156-40.503907-43.207031-43.117188-72.566406-9.121093-4.457032-17.304687-10.863282-23.960937-18.9375-13.738282-16.664063-19.207032-38.582032-15.023438-60.144532 5.46875-28.167968 28.070313-50.765624 56.238282-56.230468 21.558593-4.175782 43.480468 1.289062 60.136718 15.023437 16.671875 13.738281 26.230469 33.992188 26.230469 55.578125v11.710938c0 20.375-7.933594 39.535156-22.34375 53.945312-11.382813 11.382813-17.65625 26.527344-17.65625 42.628906v27.714844c0 2.949219-1.621094 5.664063-4.222656 7.054688-1.183594.632812-2.480469.945312-3.777344.945312zm-38.710937-73.503906c3.566406 19.933594 14.449218 37.902344 30.710937 50.34375v-12.554688c0-20.375 7.9375-39.535156 22.34375-53.941406 11.386719-11.386718 17.65625-26.53125 17.65625-42.632812v-11.710938c0-16.785156-7.4375-32.546875-20.40625-43.234375-12.953125-10.6875-30.046875-14.925781-46.90625-11.664062-21.832031 4.242187-39.34375 21.761719-43.582031 43.585937-3.273438 16.847656.976562 33.949219 11.664062 46.910156 10.6875 12.960938 26.441406 20.402344 43.230469 20.402344v16c-5 0-9.917969-.511718-14.710937-1.503906zm0 0"/><path d="m264.484375 111.972656v-16c13.234375 0 24-10.769531 24-24h16c0 22.054688-17.941406 40-40 40zm0 0"/><path d="m306.742188 351.972656h-26.257813v-16h26.257813c7.574218 0 13.742187-6.167968 13.742187-13.738281 0-4.121094-1.832031-7.992187-5.007813-10.605469l-109.550781-90.226562c-10.519531-8.664063-23.816406-13.429688-37.441406-13.429688-13.621094 0-26.917969 4.765625-37.4375 13.429688l-109.554687 90.226562c-3.175782 2.613282-5.007813 6.484375-5.007813 10.597656 0 7.578126 6.167969 13.746094 13.746094 13.746094h26.253906v16h-26.253906c-16.402344 0-29.746094-13.335937-29.746094-29.738281 0-8.917969 3.945313-17.289063 10.832031-22.960937l109.554688-90.214844c13.382812-11.023438 30.285156-17.085938 47.613281-17.085938s34.234375 6.0625 47.609375 17.078125l109.550781 90.214844c6.898438 5.679687 10.839844 14.050781 10.839844 22.960937 0 16.402344-13.34375 29.746094-29.742187 29.746094zm0 0"/><path d="m264.484375 495.972656h-192c-13.230469 0-24-10.769531-24-24v-144c0-4.417968 3.578125-8 8-8h224c4.425781 0 8 3.582032 8 8v144c0 13.230469-10.765625 24-24 24zm-200-160v136c0 4.40625 3.585937 8 8 8h192c4.417969 0 8-3.59375 8-8v-136zm0 0"/><path d="m320.484375 295.972656h-16v-40c0-4.410156-3.582031-8-8-8h-56v-16h56c13.234375 0 24 10.765625 24 24zm0 0"/><path d="m224.484375 487.972656h-16v-56c0-8.824218-7.175781-16-16-16h-48c-8.824219 0-16 7.175782-16 16v56h-16v-56c0-17.648437 14.351563-32 32-32h48c17.648437 0 32 14.351563 32 32zm0 0"/></svg>