<?xml version="1.0" encoding="iso-8859-1"?>
<!-- Generator: Adobe Illustrator 19.0.0, SVG Export Plug-In . SVG Version: 6.00 Build 0)  -->
<svg version="1.1" id="Capa_1" xmlns="http://www.w3.org/2000/svg" xmlns:xlink="http://www.w3.org/1999/xlink" x="0px" y="0px"
	 viewBox="0 0 480 480" style="enable-background:new 0 0 480 480;" xml:space="preserve">
<g>
	<path style="fill:#B40021;" d="M405.6,106.376c-35.147-35.178-92.157-35.203-127.336-0.056c-0.019,0.019-0.037,0.037-0.056,0.056
		L240,144.664l-38.192-38.288c-35.189-35.187-92.239-35.186-127.426,0.003c-26.728,26.73-33.932,67.301-18.038,101.597h79.504
		l36.224,32l36.232-64l36.224,96l54.344-64l18.112,32l18.112-32h88.576c5.464-11.845,8.305-24.731,8.328-37.776
		C432.077,146.253,422.57,123.271,405.6,106.376L405.6,106.376z"/>
	<path style="fill:#B40021;" d="M316.984,239.976l-18.112-32l-54.344,64l-36.224-96l-36.232,64l-36.224-32H56.344
		c4.424,9.707,10.538,18.551,18.056,26.12L240,399.976l165.6-165.88c7.528-7.564,13.648-16.409,18.072-26.12h-88.576
		L316.984,239.976z"/>
</g>
<path style="fill:#231F20;" d="M480,199.976h-44.6c3.047-9.632,4.598-19.674,4.6-29.776c0.047-54.168-43.826-98.118-97.994-98.166
	c-26.05-0.023-51.038,10.318-69.454,28.742L240,133.336l-32.544-32.608c-38.314-38.291-100.415-38.273-138.706,0.041
	c-25.948,25.964-35.227,64.244-24.046,99.207H0v16h51.272c4.609,8.764,10.519,16.781,17.528,23.776l165.6,165.88
	c3.122,3.126,8.188,3.129,11.314,0.006c0.002-0.002,0.004-0.004,0.006-0.006l165.6-165.88c6.971-7.005,12.848-15.021,17.432-23.776
	H480V199.976z M80.08,112.048c31.944-32.052,83.822-32.141,115.875-0.197c0.066,0.066,0.132,0.131,0.197,0.197l38.2,38.264
	c3.175,3.006,8.145,3.006,11.32,0l38.192-38.256c32.066-32.055,84.047-32.045,116.101,0.021
	c15.41,15.415,24.057,36.326,24.035,58.123c-0.015,10.186-1.913,20.281-5.6,29.776h-83.304c-2.881,0-5.54,1.549-6.96,4.056
	l-11.152,19.704l-11.152-19.704c-2.177-3.845-7.058-5.197-10.903-3.02c-0.82,0.464-1.552,1.07-2.161,1.788L247.2,256.448
	l-31.416-83.296c-1.088-2.913-3.765-4.931-6.864-5.176c-3.095-0.277-6.065,1.289-7.584,4l-31.36,55.416l-28.8-25.472
	c-1.463-1.29-3.346-2.001-5.296-2H61.6C49.883,169.549,57.122,135.127,80.08,112.048L80.08,112.048z M399.944,228.448L240,388.648
	l-159.92-160.2c-3.798-3.815-7.214-7.993-10.2-12.472h62.92l33.952,30c3.312,2.924,8.368,2.609,11.292-0.703
	c0.367-0.416,0.691-0.87,0.964-1.353l27.816-49.136l30.192,80c1.553,4.136,6.165,6.231,10.301,4.678
	c1.28-0.481,2.416-1.281,3.299-2.326l46.928-55.264l12.464,22.032c2.522,3.846,7.685,4.919,11.531,2.397
	c0.955-0.626,1.771-1.442,2.397-2.397l15.824-27.928h70.4C407.165,220.453,403.743,224.63,399.944,228.448z"/>
<g>
</g>
<g>
</g>
<g>
</g>
<g>
</g>
<g>
</g>
<g>
</g>
<g>
</g>
<g>
</g>
<g>
</g>
<g>
</g>
<g>
</g>
<g>
</g>
<g>
</g>
<g>
</g>
<g>
</g>
</svg>
