<?xml version="1.0" encoding="iso-8859-1"?>
<!-- Generator: Adobe Illustrator 19.0.0, SVG Export Plug-In . SVG Version: 6.00 Build 0)  -->
<svg version="1.1" id="Layer_1" xmlns="http://www.w3.org/2000/svg" xmlns:xlink="http://www.w3.org/1999/xlink" x="0px" y="0px"
	 viewBox="0 0 512.001 512.001" style="enable-background:new 0 0 512.001 512.001;" xml:space="preserve">
<path style="fill:#F7B239;" d="M364.98,241.516c12.529,0,22.7,10.159,22.7,22.7c0,12.541-10.171,22.7-22.7,22.7
	c-12.541,0-22.712-10.159-22.712-22.7C342.268,251.675,352.439,241.516,364.98,241.516z"/>
<path style="fill:#995C0D;" d="M479.78,232.607v63.218c0,12.053-9.766,21.819-21.807,21.819h-11.922H326.428
	c-12.053,0-21.819-9.766-21.819-21.819v-63.218c0-12.053,9.766-21.819,21.819-21.819h119.623h11.922
	C470.014,210.788,479.78,220.554,479.78,232.607z M387.68,264.216c0-12.541-10.171-22.7-22.7-22.7
	c-12.541,0-22.712,10.159-22.712,22.7c0,12.541,10.171,22.7,22.712,22.7C377.509,286.916,387.68,276.757,387.68,264.216z"/>
<path style="fill:#B27214;" d="M446.051,317.644v57.87c0,25.225-20.437,45.675-45.675,45.675h-21.783H124.328H58.156h-25.94V107.243
	h21.736h40.625h79.32h40.613h158.902h26.964c3.871,0,7.622,0.476,11.207,1.382c19.806,4.99,34.467,22.927,34.467,44.293v57.87
	H326.428c-12.053,0-21.819,9.766-21.819,21.819v63.218c0,12.053,9.766,21.819,21.819,21.819H446.051z"/>
<g>
	<polygon style="fill:#90BC42;" points="282.504,456.014 124.328,421.189 378.593,421.189 363.027,473.736 	"/>
	<polygon style="fill:#90BC42;" points="282.504,456.014 252.3,503.07 58.156,421.189 124.328,421.189 	"/>
</g>
<rect x="32.892" y="107.845" style="fill:#995C0D;" width="26.996" height="313.351"/>
<path style="fill:#90BC42;" d="M392.957,51.326l18.627,57.299c-3.585-0.905-7.337-1.382-11.207-1.382h-26.964l-14.28-43.888
	L392.957,51.326z"/>
<path style="fill:#9AD14B;" d="M359.132,63.355l14.28,43.888H214.51c1.072-5.312,1.632-10.779,1.632-16.4
	c0-5.526-0.548-10.921-1.596-16.138l132.915-47.247L359.132,63.355z"/>
<path style="fill:#E09B2D;" d="M177.137,90.843c0,5.812-1.155,11.35-3.24,16.4h-79.32c-2.084-5.05-3.24-10.588-3.24-16.4
	c0-23.689,19.199-42.9,42.9-42.9C157.926,47.943,177.137,67.154,177.137,90.843z"/>
<path style="fill:#F7B239;" d="M216.142,90.843c0,5.621-0.56,11.088-1.632,16.4h-40.613c2.084-5.05,3.24-10.588,3.24-16.4
	c0-23.689-19.211-42.9-42.9-42.9c-23.701,0-42.9,19.211-42.9,42.9c0,5.812,1.155,11.35,3.24,16.4H53.952
	c-1.06-5.312-1.632-10.779-1.632-16.4c0-45.234,36.683-81.917,81.917-81.917c39.708,0,72.817,28.274,80.309,65.779
	C215.594,79.922,216.142,85.317,216.142,90.843z"/>
<path style="fill:#FFFFFF;" d="M416.276,161.85c-4.934,0-8.932-3.999-8.932-8.932c0-3.205-2.146-5.985-5.218-6.759
	c-0.55-0.139-1.137-0.208-1.751-0.208H241.712c-4.934,0-8.932-3.999-8.932-8.932c0-4.933,3.998-8.932,8.932-8.932h158.664
	c2.087,0,4.146,0.252,6.119,0.75c11.017,2.776,18.714,12.679,18.714,24.082C425.209,157.851,421.21,161.85,416.276,161.85z"/>
<g>
	<path style="fill:#333333;" d="M457.971,201.856h-2.982V152.92c0-23.706-15.186-43.923-36.34-51.457l-17.197-52.898
		c-0.746-2.293-2.387-4.188-4.55-5.252c-2.164-1.066-4.666-1.212-6.938-0.401l-25.174,8.952l-8.836-27.169
		c-0.746-2.293-2.387-4.186-4.55-5.251c-2.162-1.065-4.665-1.21-6.935-0.403L220.71,63.036C208.935,26.508,174.629,0,134.236,0
		C84.144,0,43.39,40.752,43.39,90.844c0,2.484,0.129,4.976,0.332,7.466H32.215c-4.934,0-8.932,3.999-8.932,8.932v313.948
		c0,4.933,3.998,8.932,8.932,8.932h24.14l192.471,81.175c1.127,0.475,2.305,0.703,3.467,0.703c2.966,0,5.835-1.482,7.52-4.109
		l26.843-41.824l74.453,16.388c0.646,0.142,1.29,0.211,1.926,0.211c3.877,0,7.415-2.537,8.56-6.397l13.673-46.146h15.111
		c30.113,0,54.612-24.499,54.612-54.611v-48.936h2.982c16.954,0,30.747-13.793,30.747-30.747v-63.226
		C488.717,215.649,474.924,201.856,457.971,201.856z M387.299,62.82l11.538,35.489h-18.943l-9.578-29.451L387.299,62.82z
		 M341.805,38.949l19.304,59.362H224.748c0.204-2.488,0.331-4.981,0.331-7.466c0-3.447-0.211-6.843-0.587-10.193L341.805,38.949z
		 M61.255,90.844c0-40.241,32.739-72.979,72.981-72.979c40.24,0,72.978,32.738,72.978,72.979c0,2.484-0.13,4.978-0.382,7.466
		h-21.299c0.354-2.457,0.535-4.949,0.535-7.466c0-28.581-23.252-51.834-51.833-51.834S82.4,62.263,82.4,90.844
		c0,2.518,0.181,5.009,0.535,7.466H61.637C61.386,95.821,61.255,93.326,61.255,90.844z M101.094,98.309
		c-0.544-2.432-0.829-4.926-0.829-7.466c0-18.731,15.239-33.97,33.97-33.97s33.968,15.239,33.968,33.97
		c0,2.539-0.285,5.034-0.829,7.466H101.094z M248.839,491.914l-146.513-61.791h21.026l144.705,31.851L248.839,491.914z
		 M356.827,463.22l-150.368-33.098h160.173L356.827,463.22z M437.123,375.512c0,20.261-16.485,36.746-36.747,36.746H41.148V116.174
		h359.23c20.262,0,36.747,16.485,36.747,36.746v48.936H326.43c-16.954,0-30.747,13.793-30.747,30.747v63.226
		c0,16.954,13.793,30.747,30.747,30.747h110.695v48.937H437.123z M470.852,295.83c0,7.103-5.78,12.882-12.882,12.882H326.429
		c-7.103,0-12.882-5.779-12.882-12.882v-63.226c0-7.103,5.78-12.882,12.882-12.882H457.97c7.103,0,12.882,5.779,12.882,12.882
		V295.83z"/>
	<path style="fill:#333333;" d="M364.974,232.581c-17.443,0-31.636,14.192-31.636,31.635s14.192,31.635,31.636,31.635
		s31.636-14.192,31.636-31.635S382.419,232.581,364.974,232.581z M364.974,277.986c-7.594,0-13.771-6.178-13.771-13.77
		s6.178-13.77,13.771-13.77s13.771,6.178,13.771,13.77S372.568,277.986,364.974,277.986z"/>
</g>
<g>
	<circle style="fill:#FFFFFF;" cx="212.759" cy="137.024" r="8.932"/>
	<circle style="fill:#FFFFFF;" cx="454.293" cy="237.246" r="8.932"/>
</g>
<g>
</g>
<g>
</g>
<g>
</g>
<g>
</g>
<g>
</g>
<g>
</g>
<g>
</g>
<g>
</g>
<g>
</g>
<g>
</g>
<g>
</g>
<g>
</g>
<g>
</g>
<g>
</g>
<g>
</g>
</svg>
